<svg xmlns="http://www.w3.org/2000/svg" width="200" height="60" viewBox="0 0 200 60">
  <defs>
    <linearGradient id="grad" x1="0%" y1="0%" x2="100%" y2="100%">
      <stop offset="0%" style="stop-color:#9c27b0;stop-opacity:1" />
      <stop offset="100%" style="stop-color:#ff79c6;stop-opacity:1" />
    </linearGradient>
  </defs>
  
  <!-- Background Circle -->
  <circle cx="30" cy="30" r="26" fill="#1e1e1e" stroke="url(#grad)" stroke-width="2" />
  
  <!-- Headphones -->
  <path d="M14 28v-6a16 16 0 0 1 32 0v6" stroke="url(#grad)" stroke-width="3" fill="none" stroke-linecap="round" stroke-linejoin="round" />
  <path d="M14 28a4 4 0 0 0-4 4v8a4 4 0 0 0 4 4h4a4 4 0 0 0 4-4v-8a4 4 0 0 0-4-4h-4zM46 28a4 4 0 0 1 4 4v8a4 4 0 0 1-4 4h-4a4 4 0 0 1-4-4v-8a4 4 0 0 1 4-4h4z" fill="url(#grad)" stroke="none" />
  
  <!-- Text -->
  <text x="80" y="38" font-family="Arial, sans-serif" font-size="28" font-weight="bold">
    <tspan fill="white">Speech</tspan><tspan fill="#ff79c6">Scribe</tspan>
  </text>
  
  <!-- Tagline -->
  <text x="80" y="52" font-family="Arial, sans-serif" font-size="12" fill="#b2b2b2">Transform your voice into text</text>
</svg>